General                          : ChattChitto RG - Movies [R2L]
==========
Complete name                    : The Incredible Hulk 2008 720p BRRip H264 [ChattChitto RG]
Format                           : MPEG-4
Format profile                   : Base Media
Codec ID                         : isom
File size                        : 2.16 GiB
Duration                         : 1h 52mn
Overall bit rate                 : 2 756 Kbps
Encoded date                     : UTC 2011-04-14 16:08:36

Video
==========
ID                               : 1
Format                           : AVC
Format/Info                      : Advanced Video Codec
Format profile                   : High@L4.1
Format settings, CABAC           : Yes
Format settings, ReFrames        : 4 frames
Codec ID                         : avc1
Codec ID/Info                    : Advanced Video Coding
Duration                         : 1h 52mn
Bit rate mode                    : Variable
Bit rate                         : 2 400 Kbps
Maximum bit rate                 : 16.1 Mbps
Width                            : 1 280 pixels
Height                           : 544 pixels
Display aspect ratio             : 2.35:1
Frame rate mode                  : Constant
Frame rate                       : 23.976 fps
Color space                      : YUV
Chroma subsampling               : 4:2:0
Bit depth                        : 8 bits
Scan type                        : Progressive
Bits/(Pixel*Frame)               : 0.144
Stream size                      : 1.88 GiB (87%)
Writing library                  : x264 core 114 r1913 5fd3dce
Encoded date                     : UTC 2011-04-13 07:20:54

Audio
==========
ID                               : 2
Format                           : AAC
Format/Info                      : Advanced Audio Codec
Format profile                   : LC
Codec ID                         : 40
Duration                         : 1h 52mn
Bit rate mode                    : Variable
Bit rate                         : 352.8 Kbps
Maximum bit rate                 : 462 Kbps
Channel(s)                       : 6 channels
Channel positions                : Front: L C R, Side: L R, LFE
Sampling rate                    : 48.0 KHz
Compression mode                 : Lossy
Stream size                      : 283 MiB (13%)
Encoded date                     : UTC 2011-04-14 16:09:03

Subtitles                        : English | French | Spanish


----------------------------------------------------
IMDB Link: http://www.imdb.com/title/tt0800080/
----------------------------------------------------



Screen Shots:
==============    
http://chattchitto.net/chattchittorg/movies/brrip/2011/incredible_hulk/1.png 
http://chattchitto.net/chattchittorg/movies/brrip/2011/incredible_hulk/2.png 
http://chattchitto.net/chattchittorg/movies/brrip/2011/incredible_hulk/3.png 
http://chattchitto.net/chattchittorg/movies/brrip/2011/incredible_hulk/4.png 
http://chattchitto.net/chattchittorg/movies/brrip/2011/incredible_hulk/5.png 
http://chattchitto.net/chattchittorg/movies/brrip/2011/incredible_hulk/6.png 
http://chattchitto.net/chattchittorg/movies/brrip/2011/incredible_hulk/7.png



ScreenShots Comparison:
=========================  
http://screenshotcomparison.com/comparison/43852



Plot:
======
Dr. Bruce Banner, thanks to a gamma ray experiment gone wrong, transforms into a giant green-skinned hulk whenever his pulse rate gets too high. Meanwhile, a soldier uses the same technology to become an evil version of the original.



Release Info:
==============
original name .... : The Incredible Hulk 2008 720p BRRip H264 [ChattChitto RG]
ripper.............: HD1080
encoder............: Recalled2Life (R2L)
video codec........: H264/.MP4
video bitrate......: 2400
audio codec........: AAC-LC
aspect ratio.......: 2.35:1
resolution.........: 1280 x 544
genre..............: Action | Sci-Fi | Thriller
runtime............: 1h 52mn
language...........: English
rating.............: PG-13
subtitles..........: English | French | Spanish
sample.............: Yes
2ch Audio..........: 2ch Audio for XBox Viewers
Compatibility .....: XBox | PS3 | WD Live



Source:
========
The.Incredible.Hulk.2008.1080p.BluRay.x264-HD1080  THANKS!



Notes:
=======
ChattChitto RG Encourages Burning this Film with ConvertXtoDVD and Playing with VLC media player.
XBox 360 | PS3 | WD Live - Compatible 
Enhanced for your viewing pleasure ;)